HIERARCHY
ROOT hip
{
	OFFSET 0.000000 0.000000 0.000000
	CHANNELS 6 Xposition Yposition Zposition Xrotation Zrotation Yrotation 
	JOINT abdomen
	{
		OFFSET 0.000000 3.422050 0.000000
		CHANNELS 3 Xrotation Zrotation Yrotation 
		JOINT chest
		{
			OFFSET 0.000000 8.486693 -0.684411
			CHANNELS 3 Xrotation Zrotation Yrotation 
			JOINT neck
			{
				OFFSET 0.000000 10.266162 -0.273764
				CHANNELS 3 Xrotation Zrotation Yrotation 
				JOINT head
				{
					OFFSET 0.000000 3.148285 0.000000
					CHANNELS 3 Xrotation Zrotation Yrotation 
					End Site
					{
						OFFSET 0.000000 3.148289 0.000000
					}
				}
			}
			JOINT lCollar
			{
				OFFSET 3.422053 6.707223 -0.821293
				CHANNELS 3 Yrotation Zrotation Xrotation 
				JOINT lShldr
				{
					OFFSET 3.285171 0.000000 0.000000
					CHANNELS 3 Zrotation Yrotation Xrotation 
					JOINT lForeArm
					{
						OFFSET 10.129278 0.000000 0.000000
						CHANNELS 3 Yrotation Zrotation Xrotation 
						JOINT lHand
						{
							OFFSET 8.486692 0.000000 0.000000
							CHANNELS 3 Zrotation Yrotation Xrotation 
							End Site
							{
								OFFSET 4.106464 0.000000 0.000000
							}
						}
					}
				}
			}
			JOINT rCollar
			{
				OFFSET -3.558935 6.707223 -0.821293
				CHANNELS 3 Yrotation Zrotation Xrotation 
				JOINT rShldr
				{
					OFFSET -3.148289 0.000000 0.000000
					CHANNELS 3 Zrotation Yrotation Xrotation 
					JOINT rForeArm
					{
						OFFSET -10.266159 0.000000 0.000000
						CHANNELS 3 Yrotation Zrotation Xrotation 
						JOINT rHand
						{
							OFFSET -8.349810 0.000000 0.000000
							CHANNELS 3 Zrotation Yrotation Xrotation 
							End Site
							{
								OFFSET -4.106464 0.000000 0.000000
							}
						}
					}
				}
			}
		}
	}
	JOINT lThigh
	{
		OFFSET 5.338403 -1.642589 1.368821
		CHANNELS 3 Xrotation Zrotation Yrotation 
		JOINT lShin
		{
			OFFSET -2.053232 -20.121670 0.000000
			CHANNELS 3 Xrotation Zrotation Yrotation 
			JOINT lFoot
			{
				OFFSET 0.000000 -19.300380 -1.231939
				CHANNELS 3 Xrotation Yrotation Zrotation 
				End Site
				{
					OFFSET 0.000000 -2.463878 4.653993
				}
			}
		}
	}
	JOINT rThigh
	{
		OFFSET -5.338403 -1.642589 1.368821
		CHANNELS 3 Xrotation Zrotation Yrotation 
		JOINT rShin
		{
			OFFSET 2.053232 -20.121670 0.000000
			CHANNELS 3 Xrotation Zrotation Yrotation 
			JOINT rFoot
			{
				OFFSET 0.000000 -19.300380 -1.231939
				CHANNELS 3 Xrotation Yrotation Zrotation 
				End Site
				{
					OFFSET 0.000000 -2.463878 4.653993
				}
			}
		}
	}
}
MOTION
Frames: 11
Frame Time: 0.049989
0.000000 12.899376 32.453812 -71.009506 -0.004270 -179.996964 40.170441 -0.966448 -0.724844 -32.532616 -0.279341 -0.601543 -15.458237 0.000000 0.000000 -22.792374 -0.055597 -0.001460 -13.875481 19.564903 21.706232 -0.999845 -27.000834 -60.001110 -110.671684 33.826965 -3.961645 4.822526 -11.391041 13.777091 14.644602 -20.183094 22.095549 3.849761 27.248146 -59.997536 110.468788 -33.932133 -4.030619 -19.525436 12.843867 1.891322 -114.819664 56.903236 -36.958313 134.952209 -2.039635 -0.303272 20.189140 2.440447 4.749105 -114.838310 -56.925823 36.969593 134.951050 2.021906 0.287886 20.189367 -2.431344 -4.757825 
0.000000 12.899376 32.518314 -71.009506 -0.004270 -179.996964 40.420433 -0.966466 -0.724760 -32.532616 -0.279341 -0.601543 -15.907841 0.000000 0.000000 -23.242176 -0.055645 -0.001413 -13.541429 19.929962 21.212332 -0.999845 -27.000834 -60.001110 -110.671684 33.826965 -3.961645 5.062521 -11.137374 13.611937 14.280122 -20.528456 21.589193 3.702924 27.497993 -59.991177 110.468788 -33.932133 -4.030619 -19.735834 12.556169 1.780179 -115.196838 56.745968 -37.241245 134.952209 -2.039635 -0.303272 20.189140 2.440447 4.749105 -115.214737 -56.767445 37.252033 134.951050 2.021906 0.287886 20.189367 -2.431344 -4.757825 
0.000000 12.899375 32.582817 -71.009506 -0.004270 -179.996964 40.670452 -0.966484 -0.724676 -32.532616 -0.279341 -0.601543 -16.357555 0.000000 0.000000 -23.692081 -0.055692 -0.001366 -13.203112 20.292452 20.714811 -0.999845 -27.000834 -60.001110 -110.671684 33.826965 -3.961645 5.301604 -10.882996 13.447984 13.911405 -20.870932 21.079128 3.555771 27.747887 -59.985535 110.468788 -33.932133 -4.030619 -19.945459 12.268027 1.670225 -115.571053 56.587650 -37.521137 134.952209 -2.039635 -0.303272 20.189140 2.440447 4.749105 -115.588211 -56.608067 37.531433 134.951050 2.021906 0.287886 20.189367 -2.431344 -4.757825 
0.000000 12.899375 32.647320 -71.009506 -0.004270 -179.996964 40.920486 -0.966502 -0.724593 -32.532616 -0.279341 -0.601543 -16.807371 0.000000 0.000000 -24.142088 -0.055739 -0.001318 -12.860511 20.652279 20.213640 -0.999845 -27.000834 -60.001110 -110.671684 33.826965 -3.961645 5.539778 -10.627910 13.285226 13.538439 -21.210428 20.565342 3.408288 27.997807 -59.980591 110.468788 -33.932133 -4.030619 -20.154320 11.979455 1.561451 -115.942337 56.428352 -37.798016 134.952209 -2.039635 -0.303272 20.189140 2.440447 4.749105 -115.958717 -56.447678 37.807774 134.951050 2.021906 0.287886 20.189367 -2.431344 -4.757825 
0.000000 12.899375 32.711819 -71.009506 -0.004270 -179.996964 41.170528 -0.966520 -0.724510 -32.532616 -0.279341 -0.601543 -17.257267 0.000000 0.000000 -24.592173 -0.055786 -0.001270 -12.513634 21.009403 19.708836 -0.999845 -27.000834 -60.001110 -110.671684 33.826965 -3.961645 5.777045 -10.372133 13.123663 13.161238 -21.546896 20.047840 3.260477 28.247761 -59.976376 110.468788 -33.932133 -4.030619 -20.362431 11.690468 1.453856 -116.310707 56.268040 -38.071873 134.952209 -2.039635 -0.303272 20.189140 2.440447 4.749105 -116.326294 -56.286308 38.081100 134.951050 2.021906 0.287886 20.189369 -2.431344 -4.757825 
0.000000 12.899375 32.776321 -71.009506 -0.004270 -179.996964 41.420593 -0.966540 -0.724426 -32.532616 -0.279341 -0.601543 -17.707233 0.000000 0.000000 -25.042334 -0.055832 -0.001222 -12.162461 21.363735 19.200361 -0.999845 -27.000834 -60.001110 -110.671684 33.826965 -3.961645 6.013413 -10.115680 12.963295 12.779799 -21.880251 19.526623 3.112330 28.497746 -59.972900 110.468788 -33.932133 -4.030619 -20.569788 11.401070 1.347432 -116.676163 56.106762 -38.342754 134.952209 -2.039635 -0.303272 20.189140 2.440447 4.749105 -116.690941 -56.123951 38.351425 134.951050 2.021906 0.287886 20.189367 -2.431344 -4.757825 
0.000000 12.899375 32.840824 -71.009506 -0.004270 -179.996964 41.670662 -0.966559 -0.724343 -32.532616 -0.279341 -0.601543 -18.157253 0.000000 0.000000 -25.492548 -0.055878 -0.001173 -11.806989 21.715199 18.688217 -0.999845 -27.000834 -60.001110 -110.671684 33.826965 -3.961645 6.248882 -9.858551 12.804111 12.394121 -22.210421 19.001688 2.963840 28.747744 -59.970135 110.468788 -33.932133 -4.030619 -20.776411 11.111277 1.242175 -117.038734 55.944523 -38.610668 134.952209 -2.039635 -0.303272 20.189140 2.440447 4.749105 -117.052696 -55.960632 38.618763 134.951050 2.021906 0.287886 20.189367 -2.431344 -4.757825 
0.000000 12.899374 32.905327 -71.009506 -0.004270 -179.996964 41.920738 -0.966579 -0.724260 -32.532616 -0.279341 -0.601543 -18.607319 0.000000 0.000000 -25.942801 -0.055924 -0.001124 -11.447217 22.063738 18.172396 -0.999845 -27.000834 -60.001110 -110.671684 33.826965 -3.961645 6.483461 -9.600768 12.646116 12.004220 -22.537344 18.473042 2.814997 28.997753 -59.968090 110.468788 -33.932133 -4.030619 -20.982288 10.821090 1.138079 -117.398483 55.781353 -38.875652 134.952209 -2.039635 -0.303272 20.189140 2.440447 4.749105 -117.411598 -55.796410 38.883163 134.951050 2.021906 0.287886 20.189367 -2.431344 -4.757825 
0.000000 12.899374 32.969830 -71.009506 -0.004270 -179.996964 42.170830 -0.966599 -0.724177 -32.532616 -0.279341 -0.601543 -19.057409 0.000000 0.000000 -26.393080 -0.055969 -0.001075 -11.083141 22.409279 17.652897 -0.999845 -27.000834 -60.001110 -110.671684 33.826965 -3.961645 6.717150 -9.342340 12.489301 11.610101 -22.860941 17.940687 2.665801 29.247786 -59.966816 110.468788 -33.932133 -4.030619 -21.187450 10.530531 1.035141 -117.755386 55.617241 -39.137718 134.952209 -2.039635 -0.303272 20.189140 2.440447 4.749105 -117.767670 -55.631241 39.144634 134.951050 2.021906 0.287886 20.189367 -2.431344 -4.757825 
-0.000000 12.899374 33.034332 -71.009506 -0.004270 -179.996964 42.420914 -0.966619 -0.724094 -32.532616 -0.279341 -0.601543 -19.507507 0.000000 0.000000 -26.843378 -0.056014 -0.001025 -10.714767 22.751749 17.129715 -0.999845 -27.000834 -60.001110 -110.671684 33.826965 -3.961645 6.949956 -9.083280 12.333669 11.211773 -23.181139 17.404636 2.516239 29.497814 -59.966267 110.468788 -33.932133 -4.030619 -21.391899 10.239611 0.933354 -118.109467 55.452213 -39.396870 134.952209 -2.039635 -0.303272 20.189140 2.440447 4.749105 -118.120895 -55.465164 39.403183 134.951050 2.021906 0.287886 20.189367 -2.431344 -4.757825 
-0.000000 12.899374 33.098835 -71.009506 -0.004270 -179.996964 42.671005 -0.966640 -0.724011 -32.532616 -0.279341 -0.601543 -19.957619 0.000000 0.000000 -27.293674 -0.056058 -0.000975 -10.342086 23.091076 16.602844 -0.999845 -27.000834 -60.001110 -110.671684 33.826965 -3.961645 7.181883 -8.823599 12.179214 10.809252 -23.497875 16.864902 2.366307 29.747841 -59.966465 110.468788 -33.932133 -4.030619 -21.595625 9.948329 0.832713 -118.460754 55.286285 -39.653141 134.952209 -2.039635 -0.303272 20.189140 2.440447 4.749105 -118.471298 -55.298187 39.658836 134.951050 2.021906 0.287886 20.189367 -2.431344 -4.757825 
